<svg width="374" height="83" viewBox="0 0 374 83" fill="none" xmlns="http://www.w3.org/2000/svg">
<path d="M23.3906 36.9484L23.6494 36.8177L25.2137 35.5457L25.4679 35.3614L25.8735 35.0556L25.9808 35.0462L26.827 34.2155L27.2769 33.7977L27.5847 33.6087L27.8341 33.3706L28.1419 33.1815L28.4986 32.9341L29.1001 32.395L29.8323 32.1148L30.6436 31.5033L31.63 31.0386L32.1523 30.8308L32.3575 30.7047L34.5608 29.3228L34.878 29.241L35.9132 28.718L36.5241 28.2862L36.622 28.1695L37.2818 27.6794L38.653 27.2892L39.4247 26.8433L40.0986 26.5141L41.0172 25.8932L42.3113 25.2394L43.771 24.6253L44.4054 24.4617L45.7088 23.9152L46.9144 23.4854L48.2085 22.8317L49.1553 22.5327L51.2936 21.6429L52.8116 21.0777L53.5579 20.9583L54.5583 20.6546L55.7921 20.5467L56.4264 20.3831L57.2753 20.2007L57.758 20.1585C58.9241 19.8943 60.363 19.6603 61.592 19.4987L62.4993 19.3653L63.5184 19.2761L63.6747 19.2084L63.8845 19.136L64.4652 18.9771L65.4401 18.9999L65.713 19.0301L66.6692 18.8383L67.0494 18.8591L67.2686 18.894L67.7025 18.9101C68.8873 18.8605 70.2564 19.065 71.3132 19.405L71.3668 19.4003L72.2043 19.7054L72.5449 19.8918L73.4689 20.5676L74.4022 21.3508L74.5075 21.9362C74.769 22.4538 74.9721 22.9225 75.0774 23.5079C75.1666 24.5271 75.2229 25.1708 74.785 26.3442C74.7455 26.5098 74.6429 26.5728 74.6033 26.7384L74.3029 27.6295L73.4104 29.167L72.7413 29.5499L72.0486 29.6645L71.3955 29.6135L70.544 29.1475L70.1611 28.4783L70.1048 27.8347L70.2094 27.1769L70.6265 26.3837L71.3118 25.567L71.4539 25.3383L71.6591 25.2123L71.7966 24.93L71.7825 24.7691L71.8616 24.4378L71.8965 24.2186L71.6933 23.7499L71.6068 23.3791L71.525 23.0619L71.4338 22.6375L71.0697 22.1829C71.0161 22.1876 70.8994 22.0897 70.8994 22.0897L70.3697 21.5955L70.365 21.5419C69.4786 21.2951 68.5526 21.214 67.5288 21.2495C67.4751 21.2542 67.3095 21.2146 67.2559 21.2193L66.4023 21.348L66.1341 21.3715L65.3737 21.3299C63.8671 21.4077 62.6333 21.5156 61.3459 21.6283L59.7159 22.1492L59.1842 22.2498L58.7155 22.453L56.6423 22.8506L54.8071 23.4976L53.8462 23.6357L52.6312 23.9582L52.2021 23.9958C51.8313 24.0822 51.4699 24.276 51.0991 24.3625L50.6257 24.512C50.094 24.6126 49.518 24.8251 49.0399 24.921L48.6249 25.1195L47.3026 25.4514L46.5564 25.5707C46.5074 25.6291 46.4538 25.6338 46.4001 25.6385L44.2618 26.5282C43.4807 26.8668 42.6063 27.3757 41.4195 28.0201L40.8529 28.3399L40.0812 28.7858L39.6567 28.877L38.2647 29.6474L37.8986 29.7875L34.8256 31.732C34.3663 32.0424 33.7112 32.5862 33.3056 32.8919L32.8416 33.1487L32.226 33.5269L30.5403 34.6473L28.9713 35.8656L27.9897 36.3839L26.8263 37.2965L26.3087 37.558C26.0545 37.7424 25.7072 38.0971 25.502 38.2231L24.9261 38.4357L23.6065 39.4159L23.1659 39.9409L21.9489 40.8582L19.289 43.1989L18.8974 43.6656L17.9976 44.5011L17.6013 44.9141L17.0977 45.3365L16.501 45.9292C16.452 45.9876 16.3635 46.2115 16.3635 46.2115L15.2632 47.2267C15.2142 47.285 15.121 47.4553 15.121 47.4553C14.7247 47.8683 14.2259 48.3444 13.7364 48.9277L13.4125 49.5507L12.8506 49.9241C11.9206 51.0325 10.8927 52.2575 9.87887 53.6434L9.44302 54.2221C8.2173 56.2752 8.06576 56.3966 8.02151 56.5085L7.73251 56.9122L7.02175 58.0554L6.06625 59.4903C5.98243 59.7679 5.68874 60.1179 5.55129 60.4002L4.88948 61.4851L4.75202 61.7673L3.997 63.0225C3.54976 64.0887 3.14677 65.0428 2.89531 65.8756L2.71628 66.9182L2.48092 67.3172L2.3971 67.5948C2.37631 67.9749 2.24824 68.3645 2.22745 68.7447C2.24153 68.9056 2.20197 69.0712 2.21605 69.2322L2.18118 69.4514L2.21872 69.8805L2.1235 70.6456L2.20328 71.5575L2.28039 71.821L2.32732 72.3574L2.47684 72.8308L2.49561 73.0454C2.63574 73.4115 2.78995 73.9385 3.0957 74.3442L3.17281 74.6077L3.5322 75.0087L3.85672 75.6289L3.97339 75.7268C4.02703 75.7221 4.13901 75.7663 4.13901 75.7663L4.97915 76.7198L6.07343 77.4889C6.07343 77.4889 6.13645 77.5915 6.19009 77.5868C6.29738 77.5774 6.40935 77.6217 6.46299 77.617L7.0859 77.9409L7.14423 77.9898C7.25151 77.9804 7.36349 78.0247 7.41713 78.02L7.76714 78.3137L7.87911 78.3579L8.48794 78.5209L9.55875 79.0218C9.67072 79.066 9.778 79.0566 9.83165 79.0519L11.1519 79.3148C11.2639 79.359 11.4831 79.3939 11.5368 79.3892L12.8523 79.5984L13.0669 79.5797L16.5817 79.5965C16.7426 79.5824 16.8989 79.5147 17.0598 79.5006L18.142 79.514L19.5508 79.5529L20.409 79.4778L21.6032 79.5355L22.3005 79.4745C23.5296 79.3129 24.8565 79.0347 26.0856 78.8731L26.2955 78.8007L26.5637 78.7772C26.8272 78.7001 27.2027 78.6673 27.4709 78.6438L28.1099 78.5338L29.0124 78.3468L29.3249 78.2113L29.9686 78.155L31.9882 77.7621L32.31 77.734C33.6323 77.4021 33.9541 77.3739 35.0082 77.0655C35.1154 77.0561 35.2764 77.042 35.4326 76.9743L35.9013 76.7711L36.5356 76.6075L36.9507 76.4091L39.1077 75.7339L41.1434 74.9072L41.9339 74.6758L43.7738 74.0825L44.7602 73.6178L45.2966 73.5709L46.8099 72.952L48.6847 72.1394L49.1628 72.0435L49.5825 71.8987L51.574 71.1839L51.7698 70.9506L53.2925 70.439L53.5024 70.3666L53.6982 70.1332L54.0784 70.154L54.8595 69.8154L55.3725 69.5003L55.8412 69.2971L56.2656 69.2059L56.8369 68.9398L57.0957 68.809L58.5018 68.1995L59.1709 67.8167L59.4345 67.7396L59.4834 67.6812L59.8448 67.4875L60.4744 67.2702C61.8269 66.6654 63.1699 65.9534 64.4734 65.4069L65.2452 64.961L65.8701 64.6901C66.7096 64.4005 67.1199 64.1484 67.4814 63.9546L68.2042 63.567L68.4093 63.441L69.1322 63.0534L69.3816 62.8154L69.9086 62.6612L70.1675 62.5305L70.431 62.4533L70.9815 62.5673L71.1612 62.7678L71.2966 63.0803L71.2758 63.4605L71.1383 63.7428L70.5718 64.0626L70.3619 64.135L69.7953 64.4548L69.2334 64.8283L67.9929 65.4773L67.6268 65.6175L66.025 66.4603L65.3162 67.0088L64.6424 67.338L64.0174 67.6089L63.3436 67.9381L63.1873 68.0058L62.5135 68.335L62.3083 68.4611L61.2287 69.096L60.3685 69.7659L59.8951 69.9154L56.3065 71.5266L54.9098 72.2434L54.5343 72.2762L53.1282 72.8857L52.7621 73.0258L52.6595 73.0889L52.0393 73.4134L50.941 73.8338L50.4233 74.0953L49.6817 74.2683L46.6993 75.394C46.2842 75.5925 46.0744 75.6649 45.9134 75.679L45.1276 75.9639L44.8245 76.2067L44.5516 76.1765C44.1808 76.263 43.8194 76.4568 43.5023 76.5386L42.77 76.8188L42.0915 77.0944L40.9442 77.5731L39.9881 77.7649L39.6803 77.954L39.1533 78.1082L38.1763 78.6801L37.4837 78.7948L36.952 78.8953L35.8255 78.9939L34.1908 79.4612L33.5028 79.6295C33.4492 79.6342 33.3955 79.6389 33.1857 79.7113L32.2295 79.9031L31.9707 80.0338L31.7702 80.2135L30.9797 80.4448L29.8532 80.5434L28.9554 80.7841L28.5752 80.7633L28.0435 80.8639L26.9894 81.1723C26.9894 81.1723 26.9358 81.177 26.8868 81.2353L25.9307 81.4271L24.6084 81.759C22.9107 82.1237 21.3645 82.3671 21.3108 82.3718L20.9447 82.5119L20.1401 82.5823L19.1256 82.7251L18.2043 82.6976L17.9361 82.7211L16.7466 82.717L15.9326 82.6802L15.4498 82.7224L13.8614 82.483C13.7005 82.4971 13.3739 82.4716 13.2667 82.481L12.4969 82.3321C12.336 82.3462 11.9652 82.4327 11.8579 82.4421L11.1418 82.2885C11.0345 82.2979 10.6496 82.2235 10.5424 82.2329C10.4887 82.2376 10.2695 82.2027 10.1622 82.2121L9.21273 81.8627L8.49662 81.7092C8.43828 81.6602 8.27267 81.6207 8.21903 81.6254L7.88779 81.5462L7.62428 81.6233L6.90348 81.4161L6.04254 80.8428L5.22586 80.1576C5.11389 80.1133 5.1045 80.006 4.99253 79.9618L4.36493 79.5843C4.25295 79.54 4.07326 79.3395 3.96128 79.2953L3.13052 78.4491L2.69403 77.7846L2.55859 77.4721C2.39766 77.4862 2.12007 77.4024 2.12007 77.4024L1.96116 76.8217C1.77678 76.5676 1.56892 76.0453 1.31212 75.5813L1.06001 75.1709L0.978211 74.8537L0.634917 74.0189L0.671804 73.2049L0.563865 71.9712C0.484084 71.0593 0.404303 70.1474 0.119343 69.3615L0.0911853 69.0397L0 68.6153L0.0348693 68.396C0.0509666 67.9622 0.204523 67.2461 0.372157 66.6909L0.367464 66.6372L0.407027 66.4716L0.467379 65.9258L0.791245 65.3029L1.05678 64.6311C1.37126 63.9009 1.72999 63.0587 1.89763 62.5035L1.89293 62.4499L2.19333 61.5588L2.18864 61.5051L2.77804 60.2104C2.82229 60.0984 2.87124 60.0401 2.86655 59.9864L4.46039 57.1984L5.23418 56.1578L6.30166 54.7672L7.73725 52.6417L8.17309 52.063L9.09842 50.901L10.1753 49.6177L10.5528 48.9901L10.8512 48.6937L11.0959 48.402L11.5948 47.926C11.688 47.7557 11.9374 47.5176 12.0306 47.3473L13.1705 46.1666L14.5062 44.7525L15.0238 44.491C15.278 44.3066 15.6206 43.8982 15.9726 43.5972L16.4178 43.1258L16.4715 43.1211L17.0589 42.4211L18.1639 41.4596L19.1174 40.6195L19.3132 40.3861L19.8704 39.959L20.213 39.5507L20.8728 39.0605C21.1759 38.8178 21.4696 38.4678 21.7726 38.2251L22.6376 37.6089C22.887 37.3709 23.1948 37.1818 23.3906 36.9484Z" fill="#C58569"/>
<path d="M86.9507 50.9004L86.9601 51.0076C86.9253 51.2269 86.9393 51.3878 86.5994 52.4446C86.5598 52.6102 86.4854 52.995 86.3969 53.219L85.9262 54.0169L85.3736 54.4977L84.9331 55.0227L84.4973 55.6013L83.9984 56.0774C83.1616 57.0154 82.0472 57.8696 80.8791 58.7286L80.7766 58.7916L80.1215 59.3354L79.809 59.4708L79.2028 59.9562L78.8602 60.3646L78.543 60.4464C78.4988 60.5584 78.3519 60.7334 78.3519 60.7334L77.8879 60.9902L77.7317 61.0579L77.1557 61.2704L76.7896 61.4106L76.5798 61.483C76.5308 61.5413 76.4329 61.658 76.3793 61.6627L76.2231 61.7304C75.2904 62.1904 74.7238 62.5102 74.1967 62.6644L74.0499 62.8394L73.7327 62.9212L72.9911 63.0942L72.6157 63.127L71.5918 63.1626C71.109 63.2048 70.6752 63.1887 70.3487 63.1632C70.0758 63.133 69.7492 63.1076 69.1357 62.891L69.0237 62.8467C68.4638 62.6254 67.7149 62.0964 67.5747 61.7303L67.3763 61.3153L67.2804 60.8372L67.4011 59.7456L67.7203 59.069L68.142 58.3295L69.9042 56.2294L70.4963 55.5831L70.9951 55.107L71.1909 54.8737L72.2959 53.9121L72.3449 53.8538C72.3938 53.7955 72.5407 53.6205 72.6433 53.5574L73.1911 53.0231L73.4405 52.785L74.6434 51.7069L74.9861 51.2985L75.147 51.2844L75.6506 50.862L76.2078 50.4349L76.8675 49.9448L77.8747 49.0999L78.3829 48.7311L77.5783 48.8015C77.471 48.8109 77.3684 48.874 77.2075 48.888C76.8367 48.9745 76.3586 49.0704 75.8759 49.1126L74.5395 49.2836L73.8818 49.179L73.4292 48.9483L72.9531 48.4495L72.9504 47.8011L73.4071 46.8423L74.0809 46.513L74.7152 46.3494L75.4079 46.2348L75.7974 46.3629L76.7234 46.444C77.4744 46.3783 78.1228 46.3756 78.8832 46.4172L79.6878 46.3468L80.4971 46.3301L81.5022 46.08L81.7215 46.1148L82.463 45.9419C82.5656 45.8788 82.7755 45.8064 82.8244 45.7481L83.4306 45.2626L83.841 45.0105L83.8946 45.0058L84.305 44.7537L84.783 44.6578L85.2075 44.5667C85.5246 44.4849 86.0563 44.3843 86.4365 44.4051L86.7584 44.3769L87.036 44.4607C87.2552 44.4956 87.5375 44.6331 87.7078 44.7263L88.9764 44.3991L89.6061 44.1818L90.406 44.0578L91.2408 43.7145L91.6652 43.6233L92.1969 43.5227L93.2698 43.4289L93.6942 43.3377L94.3962 43.3303C94.5572 43.3163 94.7717 43.2975 94.9816 43.2251L95.518 43.1781C95.6789 43.1641 95.8352 43.0963 95.9961 43.0823L96.3085 42.9468L96.5278 42.9817L96.8496 42.9535L97.1668 42.8717L97.5423 42.8389L98.137 42.8409L98.6688 42.7403L99.0536 42.8148L99.2146 42.8007L99.6484 42.8168L99.9213 42.847C100.355 42.863 100.906 42.977 101.622 43.1306L101.734 43.1749L101.948 43.1561L102.454 43.382L102.401 43.3867C102.893 43.4518 102.902 43.5591 103.019 43.657C103.131 43.7012 103.185 43.6965 103.238 43.6918L103.997 44.3282L104.249 44.7385L104.359 45.3775L104.298 45.9233L104.077 46.4832L103.66 47.2764C103.478 47.6707 103.38 47.7873 103.234 47.9623L102.94 48.3124L102.31 48.5296L101.984 48.5041L101.874 47.8651L101.904 47.5922L101.978 47.2073L102.155 46.7594L102.475 46.0829L102.628 45.3668L102.614 45.2059L102.166 45.0288L101.767 44.7935L100.944 44.6493C99.7402 44.4843 98.2919 44.6111 97.4873 44.6815L96.6827 44.7518L96.0437 44.8618C95.7755 44.8853 95.5656 44.9577 95.3557 45.0301C95.1995 45.0978 94.9849 45.1166 94.7167 45.1401C92.3706 45.5075 90.7265 45.8675 89.0871 46.2812L88.6673 46.426L88.4668 46.6057L87.4429 46.6413L86.3842 46.896L84.901 47.242L84.5396 47.4358L84.8266 47.6269L84.9386 47.6711L85.3912 47.9018L86.3292 48.7386L86.586 49.2026L86.9105 49.8228L86.9507 50.9004ZM83.6283 53.0829L83.7799 52.9615C84.1621 52.3875 84.3391 51.9396 84.5161 51.4917L84.4879 51.1699L84.6509 50.5611C84.6368 50.4001 84.6811 50.2882 84.6623 50.0736C84.5993 49.971 84.3518 49.6143 84.3471 49.5606L84.2888 49.5117L83.8899 49.2763L83.4373 49.0457L82.7748 48.8874L82.0983 48.5683C82.0983 48.5683 81.991 48.5776 81.9326 48.5287L81.5806 48.8298C81.0234 49.2569 80.2704 49.9173 78.6337 50.9794L77.2115 52.0227L76.6053 52.5081L76.3512 52.6925C75.9945 52.9399 75.6472 53.2946 75.2905 53.5421L74.9921 53.8384L74.337 54.3822L73.7939 54.9702L73.2366 55.3974L72.8893 55.752L72.2389 56.3495C72.141 56.4661 71.8473 56.8161 71.8031 56.9281L71.3766 57.6141L70.9897 58.1344C70.7544 58.5333 70.5237 58.9859 70.3956 59.3755C70.3467 59.4338 70.3561 59.5411 70.3561 59.5411L70.2723 59.8187L70.2562 60.2525L70.2166 60.4181L70.2448 60.74L70.5948 61.0337L70.877 61.1711L70.9843 61.1617C72.6566 61.1235 73.018 60.9298 74.6829 60.1895C75.5177 59.8462 76.2942 59.454 76.968 59.1248L77.9939 58.4945L78.9427 57.6007L79.3182 57.5679L80.731 56.4173L80.9804 56.1793C81.3814 55.8199 81.773 55.3532 82.1693 54.9402L82.3114 54.7115L82.8056 54.1818L83.2461 53.6568C83.2414 53.6032 83.2857 53.4912 83.2857 53.4912L83.6283 53.0829Z" fill="#C58569"/>
<path d="M106.752 57.1676C107.372 56.8431 107.68 56.654 108.041 56.4603L108.394 56.1592L110.583 54.6164L111.296 54.1215L112.508 53.1507L112.718 53.0782L112.865 52.9032L114.087 52.0396L114.453 51.8995L114.56 51.8901L114.756 51.6568L115.059 51.414L115.773 50.9192L115.968 50.6859L116.32 50.3848L116.941 50.0603L117.4 49.7499L118.363 49.017C118.461 48.9003 118.563 48.8373 118.671 48.8279L118.974 48.5852L119.407 48.6013L119.802 48.783L119.937 49.0955L119.93 49.6366L119.436 50.1663L119.065 50.2528L118.968 50.3694C118.058 51.0976 117.55 51.4664 116.886 51.9029L115.918 52.5821L115.575 52.9904L114.916 53.4806L114.867 53.5389C114.505 53.7327 114.202 53.9754 113.953 54.2134C113.748 54.3395 113.654 54.5098 113.556 54.6265L112.906 55.2239L111.778 55.9172L111.426 56.2182L111.171 56.4026L110.311 57.0725L110.16 57.1938C110.003 57.2615 109.857 57.4366 109.7 57.5043L109.089 57.9361C108.987 57.9991 108.791 58.2324 108.791 58.2324L108.078 58.7273L107.623 59.0914L107.574 59.1497C107.266 59.3388 106.968 59.6351 106.66 59.8242L105.487 60.6295L104.877 61.0613L104.466 61.3134L103.685 61.652L102.958 61.9859L102.801 62.0536L102.034 62.5532L101.61 62.6443L100.218 63.4148L100.013 63.5408L99.9054 63.5502L99.7585 63.7252L99.1289 63.9424L98.8024 63.917L98.6321 63.8238L97.4727 63.5468C97.3655 63.5562 97.0389 63.5307 96.9853 63.5354L96.5394 62.7636C96.355 62.5095 95.9815 61.9476 95.8857 61.4695C95.7757 60.8305 95.773 60.1822 95.9849 59.515L95.9755 59.4077L96.001 59.0812L96.1686 58.526L96.5669 57.5182L96.7648 56.6901C96.8043 56.5245 96.9116 56.5151 96.9512 56.3495L97.2609 55.5657L97.5895 54.9964C97.6291 54.8308 97.7806 54.7094 97.8202 54.5438L98.3398 53.6876L98.4867 53.5126L98.7475 52.7871L98.9621 52.7683L99.5702 51.6881L99.7567 51.3475L100.032 50.7829L100.248 50.1694L101.096 48.7439L101.141 48.6319L103.023 45.4403C103.063 45.2747 103.166 45.2116 103.205 45.046L103.622 44.2528L104.093 43.4549L104.289 43.2216L104.279 43.1143L105.128 41.6888L105.323 41.4554C105.368 41.3435 105.524 41.2758 105.568 41.1638L105.755 40.8232L106.039 40.3659L106.137 40.2492C106.181 40.1372 106.176 40.0836 106.172 40.0299L106.461 39.6263C106.451 39.519 106.491 39.3534 106.486 39.2998L106.917 38.6675L107.216 38.3711L107.539 37.7482L108.152 36.7216L108.49 36.2597L108.819 35.6904C108.907 35.4664 109.147 35.1211 109.387 34.7758L109.707 34.0993L110.045 33.6373L110.329 33.18C110.471 32.9514 110.662 32.6644 110.662 32.6644L111 32.2024L111.049 32.1441L111.035 31.9831L111.212 31.5352L112.016 30.2217L112.114 30.105C112.109 30.0514 112.153 29.9394 112.153 29.9394L112.771 28.9665L113.104 28.4509L113.3 28.2176L114.894 25.4296L115.09 25.1962C115.271 24.802 115.556 24.3447 115.742 24.0041L116.089 23.6494C116.178 23.4254 116.418 23.0801 116.511 22.9098L116.756 22.6181L117.261 21.601L117.546 21.1437L117.679 20.8077L118.105 20.1218L118.399 19.7718L118.634 19.3729L118.82 19.0322L119.207 18.5119L119.897 17.7489L120.436 17.1072L120.969 16.4119L121.273 16.1692L121.664 15.7025L122.016 15.4014L122.27 15.217C122.779 14.8483 122.984 14.7222 123.466 14.68C123.788 14.6518 124.173 14.7262 124.586 15.1225C125.417 15.9687 124.965 16.9812 124.667 17.2776L124.075 17.9239L123.019 18.8271L122.618 19.1865L122.163 19.5506L121.669 20.0803L121.028 20.785L120.147 21.835L119.068 23.7131L118.578 24.2964L118.112 25.148L117.672 25.673L117.059 26.6996L116.712 27.0543L115.726 28.762L115.09 29.5204L114.335 30.7756L113.393 32.3714L113.05 32.7797C112.447 33.9136 111.683 35.0615 111.079 36.1953L110.751 36.7646L110.48 37.3828L109.942 38.0245L109.413 38.7734L108.124 40.7239C108.134 40.8312 108.089 40.9432 108.099 41.0505L107.672 41.7364C107.623 41.7948 107.521 41.8578 107.525 41.9114L107.055 42.7093L106.81 43.001L106.672 43.2833L106.579 43.4536L105.731 44.8791L105.358 45.5603C105.314 45.6723 105.274 45.8379 105.279 45.8916L104.92 46.7337L104.45 47.5316L104.086 48.3202L103.499 49.0202L103.135 49.8087L102.837 50.1051L102.425 50.9519C102.331 51.1222 102.18 51.2436 102.091 51.4675L101.385 52.6644L100.933 53.6769C100.884 53.7352 100.884 53.7352 100.889 53.7888L100.712 54.2368L100.309 55.1909L100.064 55.4826L98.9439 58.121L98.7763 58.6762C98.7273 58.7345 98.6925 58.9538 98.6972 59.0074L98.5972 59.7189L98.4202 60.1668L98.3109 60.7709L98.3156 60.8245L98.5489 61.0203L98.6026 61.0156L99.1088 61.2416L99.2697 61.2275L99.9483 60.952L100.149 60.7723L100.774 60.5014L101.34 60.1815L102.327 59.7169L102.478 59.5955L103.001 59.3877L103.255 59.2033L104.183 58.6897L104.598 58.4912L106.752 57.1676Z" fill="#C58569"/>
<path d="M124.594 55.6067C125.214 55.2821 125.522 55.0931 125.883 54.8993L126.236 54.5982L128.425 53.0554L129.138 52.5606L130.35 51.5897L130.56 51.5173L130.707 51.3423L131.929 50.4787L132.295 50.3385L132.402 50.3291L132.598 50.0958L132.901 49.8531L133.615 49.3582L133.81 49.1249L134.162 48.8238L134.783 48.4993L135.242 48.1889L136.205 47.456C136.303 47.3393 136.405 47.2763 136.513 47.2669L136.816 47.0242L137.249 47.0403L137.644 47.222L137.779 47.5345L137.772 48.0756L137.278 48.6053L136.907 48.6918L136.81 48.8085C135.9 49.5366 135.392 49.9054 134.728 50.3419L133.76 51.0211L133.417 51.4295L132.758 51.9196L132.709 51.9779C132.347 52.1717 132.044 52.4144 131.795 52.6525C131.59 52.7785 131.496 52.9488 131.398 53.0655L130.748 53.6629L129.62 54.3562L129.268 54.6573L129.013 54.8417L128.153 55.5115L128.002 55.6329C127.845 55.7006 127.699 55.8756 127.542 55.9433L126.931 56.3751C126.829 56.4381 126.633 56.6715 126.633 56.6715L125.92 57.1663L125.465 57.5304L125.416 57.5887C125.108 57.7778 124.81 58.0742 124.502 58.2632L123.329 59.0685L122.719 59.5003L122.308 59.7524L121.527 60.091L120.8 60.4249L120.643 60.4927L119.876 60.9922L119.452 61.0834L118.06 61.8538L117.855 61.9798L117.747 61.9892L117.601 62.1642L116.971 62.3815L116.644 62.356L116.474 62.2628L115.315 61.9858C115.207 61.9952 114.881 61.9697 114.827 61.9744L114.381 61.2027C114.197 60.9485 113.824 60.3866 113.728 59.9086C113.618 59.2696 113.615 58.6212 113.827 57.954L113.818 57.8467L113.843 57.5202L114.011 56.965L114.409 55.9572L114.607 55.1292C114.646 54.9635 114.754 54.9541 114.793 54.7885L115.103 54.0047L115.432 53.4354C115.471 53.2698 115.623 53.1485 115.662 52.9828L116.182 52.1266L116.329 51.9516L116.59 51.2261L116.804 51.2073L117.412 50.1271L117.599 49.7865L117.874 49.2219L118.09 48.6084L118.938 47.1829L118.983 47.0709L120.865 43.8793C120.905 43.7137 121.008 43.6507 121.047 43.4851L121.464 42.6918L121.935 41.8939L122.131 41.6606L122.121 41.5533L122.97 40.1278L123.165 39.8945C123.21 39.7825 123.366 39.7148 123.41 39.6028L123.597 39.2622L123.881 38.8049L123.979 38.6882C124.023 38.5762 124.018 38.5226 124.014 38.469L124.303 38.0653C124.293 37.958 124.333 37.7924 124.328 37.7388L124.759 37.1065L125.058 36.8101L125.381 36.1872L125.994 35.1607L126.332 34.6987L126.661 34.1294C126.749 33.9055 126.989 33.5602 127.229 33.2149L127.549 32.5383L127.887 32.0763L128.171 31.619C128.313 31.3904 128.504 31.1034 128.504 31.1034L128.842 30.6414L128.891 30.5831L128.877 30.4222L129.054 29.9743L129.858 28.6607L129.956 28.5441C129.951 28.4904 129.995 28.3785 129.995 28.3785L130.613 27.4055L130.946 26.8899L131.142 26.6566L132.736 23.8686L132.932 23.6353C133.113 23.241 133.398 22.7837 133.584 22.4431L133.931 22.0884C134.02 21.8644 134.26 21.5191 134.353 21.3488L134.598 21.0572L135.103 20.04L135.388 19.5827L135.521 19.2468L135.947 18.5608L136.241 18.2108L136.476 17.8119L136.662 17.4713L137.049 16.9509L137.739 16.1879L138.278 15.5462L138.811 14.8509L139.115 14.6082L139.506 14.1415L139.858 13.8405L140.112 13.6561C140.621 13.2873 140.826 13.1612 141.308 13.119C141.63 13.0908 142.015 13.1653 142.428 13.5616C143.259 14.4078 142.807 15.4202 142.509 15.7166L141.917 16.363L140.861 17.2661L140.46 17.6255L140.005 17.9896L139.511 18.5193L138.87 19.224L137.989 20.274L136.91 22.1521L136.42 22.7355L135.954 23.587L135.514 24.112L134.901 25.1386L134.554 25.4933L133.568 27.2011L132.932 27.9594L132.177 29.2146L131.235 30.8104L130.893 31.2188C130.289 32.3526 129.525 33.5005 128.921 34.6343L128.593 35.2036L128.322 35.8218L127.784 36.4635L127.255 37.2125L125.966 39.163C125.976 39.2703 125.931 39.3822 125.941 39.4895L125.514 40.1754C125.465 40.2338 125.363 40.2968 125.367 40.3504L124.897 41.1484L124.652 41.44L124.514 41.7223L124.421 41.8926L123.573 43.3181L123.2 43.9994C123.156 44.1113 123.116 44.277 123.121 44.3306L122.762 45.1728L122.292 45.9707L121.928 46.7592L121.341 47.4592L120.977 48.2477L120.679 48.5441L120.267 49.3909C120.173 49.5613 120.022 49.6826 119.933 49.9066L119.227 51.1034L118.775 52.1159C118.726 52.1742 118.726 52.1742 118.731 52.2279L118.554 52.6758L118.151 53.6299L117.906 53.9216L116.786 56.5601L116.618 57.1152C116.569 57.1736 116.534 57.3928 116.539 57.4465L116.439 58.1579L116.262 58.6058L116.153 59.2099L116.158 59.2636L116.391 59.4594L116.445 59.4547L116.951 59.6806L117.112 59.6666L117.79 59.391L117.991 59.2113L118.616 58.9404L119.182 58.6206L120.169 58.1559L120.32 58.0346L120.843 57.8267L121.097 57.6423L122.025 57.1287L122.44 56.9302L124.594 55.6067Z" fill="#C58569"/>
<path d="M150.889 49.955L151.83 48.3592L152.208 47.7316L152.594 47.2113L152.648 47.2066L153.133 46.5696L153.275 46.3409L153.221 46.3456L152.592 46.5629L151.141 47.2843L150.614 47.4385L149.036 48.5496L148.63 48.8553L148.269 49.0491L147.912 49.2965L146.73 49.9945L145.406 50.9211L145.044 51.1149L144.116 51.6285L144.067 51.6868L143.354 52.1817L143.144 52.2541C142.836 52.4432 142.538 52.7395 142.23 52.9286L141.927 53.1713L141.424 53.5938L141.111 53.7292C141.062 53.7875 140.75 53.923 140.696 53.9277C140.339 54.1751 139.983 54.4225 139.631 54.7236L138.658 55.3491L138.176 55.3914L137.555 55.7159L137.175 55.6951C137.077 55.8118 136.965 55.7675 136.706 55.8983C136.604 55.9613 136.462 56.1899 136.462 56.1899L135.422 56.6593L135.051 56.7458L134.172 57.201L133.855 57.2828L133.475 57.2621C132.411 57.4632 131.534 57.3237 131.137 56.4936C130.803 55.7661 130.987 54.7771 131.283 53.8323L131.485 53.0579L131.774 52.6543C131.774 52.6543 131.823 52.5959 131.818 52.5423L132.191 51.861L132.52 51.2918L133 50.6012L133.587 49.9011L133.778 49.6142L134.228 49.1964L134.771 48.6084L137.047 46.1932L137.746 45.5375L138.089 45.1291L138.685 44.5364L138.788 44.4734L139.194 44.1676L140.182 43.1082L141.028 42.2775L141.375 41.9228L142.143 41.4232L142.191 41.3649L142.655 41.1081L142.812 41.0404C142.968 40.9727 143.115 40.7977 143.637 40.5898L145.484 39.4553L145.948 39.1985L146.26 39.0631C146.577 38.9813 146.831 38.7969 147.149 38.7151L147.349 38.5354L147.881 38.4348L148.193 38.2994L148.559 38.1593L149.364 38.0889L150.558 38.1465C150.617 38.1955 150.782 38.235 150.836 38.2304L151.468 38.6615L151.569 39.1932L151.504 39.6854C151.38 40.1286 150.714 41.1598 149.578 41.1511C149.471 41.1605 149.314 41.2282 149.207 41.2376L147.115 41.4206L146.744 41.5071L146.432 41.6426L145.753 41.9181L144.865 42.2661L143.727 42.8521L142.398 43.7251L142.144 43.9095L141.489 44.4533L139.23 46.4346L139.083 46.6096L138.647 47.1883L138.207 47.7133L137.85 47.9607L137.454 48.3738L137.356 48.4904L136.857 48.9665L136.866 49.0738L136.386 49.7644L135.794 50.4108L135.799 50.4644L135.51 50.868L135.319 51.155L135.225 51.3253C135.23 51.379 135.186 51.491 135.186 51.491L134.892 51.841L134.701 52.1279L134.181 52.9842L133.921 53.7097L133.788 54.0456L133.548 54.3909L133.406 54.6196L133.361 54.7315L133.394 55.107C133.76 54.9669 133.956 54.7335 134.322 54.5934L134.796 54.4439L135.577 54.1053L135.948 54.0188L137.75 52.9963L138.004 52.8119L138.463 52.5015L139.142 52.2259L139.45 52.0368C139.865 51.8383 139.869 51.892 140.734 51.2758L141.086 50.9747L141.546 50.6643L141.693 50.4893L142.01 50.4075L143.036 49.7772L143.392 49.5298L144.775 48.6521L145.127 48.351L146.67 47.4593L146.88 47.3869L147.755 46.8779L148.356 46.3389L149.177 45.8346L149.426 45.5966L149.832 45.2909L150.081 45.0528L150.688 44.5674L151.45 44.0142L153.08 43.4932L153.831 43.4275L154.43 43.4832L154.995 43.7581L155.053 43.8071C155.331 43.8909 155.671 44.0773 156.04 44.5856L156.068 44.9074L156.029 45.073L155.842 45.4136L155.782 45.9594L155.327 46.3235L155.132 46.5569L154.71 47.2964L154.314 47.7095L153.3 49.0954L153.207 49.2657L152.736 50.0636L152.603 50.3995L152.519 50.6771C152.48 50.8428 152.372 50.8521 152.377 50.9058C152.538 50.8917 152.641 50.8287 152.855 50.8099L153.387 50.7093L153.602 50.6906L154.285 50.4686L154.865 50.3097L155.178 50.1743L155.861 49.9524L157.692 49.2517L157.951 49.1209L158.424 48.9714L159.049 48.7005L159.513 48.4437L159.723 48.3713L159.923 48.1916L161.758 47.5446L162.227 47.3414L162.374 47.1664L164.937 46.1855L165.41 46.036L166.455 45.6203C166.508 45.6156 166.83 45.5874 166.889 45.6364C167.054 45.6759 167.381 45.7014 167.434 45.6967L167.514 46.6086L167.02 47.1383L166.43 47.1899L165.644 47.4749L165.028 47.8531L164.707 47.8812L163.974 48.1615L163.662 48.2969L162.426 48.9996L161.552 49.5085L160.507 49.9242L159.365 50.4566L159.052 50.5921L158.842 50.6645L158.441 51.0239L157.66 51.3625L157.254 51.6682L157.049 51.7943L155.755 52.448L155.345 52.7001L153.943 53.3632L153.372 53.6294C153.27 53.6925 153.069 53.8721 153.015 53.8768L152.23 54.1618L151.532 54.2228L151.045 54.2114L150.767 54.1276L150.382 54.0532L149.853 53.559L149.806 53.0226C149.729 52.7591 149.647 52.4419 149.735 52.218L149.952 51.6044L149.943 51.4972L150.369 50.8112L150.506 50.5289L150.889 49.955Z" fill="#C58569"/>
<path d="M173.33 45.2349L172.783 45.7693L171.549 47.1204C171.447 47.1834 171.207 47.5287 171.109 47.6454L170.272 48.5835L169.822 49.0012L168.745 50.2845L168.172 51.1455L167.736 51.7241L166.629 53.2804L166.149 53.971L165.865 54.4283C165.767 54.545 165.683 54.8225 165.585 54.9392L165.541 55.0512L165.583 55.534L165.523 56.0798L165.439 56.3574L164.978 57.2625L163.826 57.6876L162.958 57.6554L162.253 57.0144L162.162 56.59L162.122 55.5125L162.224 54.2063L162.371 54.0313L162.706 52.9209C162.701 52.8673 162.79 52.6433 162.785 52.5897L163.659 50.8377L163.84 50.4434L163.983 50.2148C164.111 49.8252 164.351 49.4799 164.479 49.0903L165.283 47.7768L167.335 43.4352C167.601 42.7634 167.929 42.1941 168.195 41.5222L168.901 40.3254L169.23 39.7561L170.765 36.9192L171.094 36.3499C171.378 35.8926 171.555 35.4447 171.786 34.9921C172.154 34.2573 172.624 33.4593 173.237 32.4328L173.375 32.1505L174.346 30.2818L174.631 29.8245L174.896 29.1527L175.479 28.399L175.598 27.9022L176.18 27.1485L176.558 26.5209L177.543 24.8131L177.667 24.3699L178.359 23.0121L178.473 22.4616L179.468 20.8611L179.817 19.9117L181.019 17.5904L182.159 15.1665L182.792 13.7597L183.799 11.6718L184.385 9.72861L184.544 9.06614L184.772 7.96516L184.907 7.03449L184.974 5.94759C184.964 5.8403 185.053 5.61635 185.043 5.50907L185.379 4.3987C185.595 3.78518 186.129 3.08986 187.314 3.04026C188.011 2.97925 188.389 3.59479 188.553 4.2291L188.586 4.60458L188.516 5.0431L188.441 5.42798L188.008 6.65501L187.769 8.24346L187.41 9.08562L187.105 9.92309C187.07 10.1424 186.928 10.371 186.8 10.7606L186.509 11.759C186.514 11.8126 186.42 11.9829 186.376 12.0949L185.943 13.3219L185.589 14.2177L184.941 15.4635L184.24 16.714L183.828 17.5609L183.779 17.6192L183.508 18.2374C183.469 18.4031 183.434 18.6223 183.439 18.676L182.816 19.5952L182.826 19.7025L181.978 21.128L181.202 22.7634L180.736 23.6149L180.451 24.0722C179.883 24.9868 179.554 25.5561 179.377 26.004L179.382 26.0576L179.102 26.5685L178.907 26.8019L178.117 28.2763L177.42 29.5805L176.93 30.1638L176.558 30.8451L176.562 30.8987L176.061 31.9695L175.418 33.269L174.638 34.8507L173.662 36.6658L171.364 40.0559L171.275 40.2798L170.98 41.2246L169.367 43.798L169.136 44.2506L167.843 47.3906L167.338 48.4077L167.121 49.0213L167.366 48.7296L167.508 48.501L168.879 46.8676L169.427 46.3332L170.317 45.3905L170.548 44.9379L171.492 43.9904L171.702 43.918L172.725 42.6394L173.028 42.3966L173.59 42.0232L174.294 41.4211L174.797 40.9986L174.993 40.7653L175.448 40.4012C175.443 40.3476 175.487 40.2356 175.487 40.2356L176.504 39.4981L177.824 38.5178L178.332 38.149L178.381 38.0907L178.786 37.7849L179.134 37.4302L179.74 36.9448L179.847 36.9354L180.502 36.3916L181.922 35.943L183.939 34.9018L184.413 34.7522C185.047 34.5886 185.506 34.2782 186.423 34.2521L186.633 34.1796L188.09 34.1602C188.748 34.2648 189.42 34.5303 190.209 34.8938C190.549 35.0802 190.68 35.339 190.713 35.7145L190.681 36.5821L190.762 36.8993L190.52 37.8394C190.49 38.1123 190.357 38.4482 190.327 38.7211L189.964 39.5096L189.617 39.8643L189.004 40.8909L188.866 41.1731L188.377 41.7565L186.703 43.6326L185.862 44.517L185.519 44.9253L183.729 46.7035L182.98 47.4176L182.321 47.9077L182.017 48.1504L181.871 48.3254L181.171 48.9812L180.703 49.1844L180.145 49.6115L179.945 49.7912L179.535 50.0433L178.87 50.4798L178.611 50.6105L178.362 50.8485C177.55 51.46 176.627 52.0273 175.377 52.5691L174.752 52.8399L174.445 53.029L174.074 53.1155L173.859 53.1343L173.239 53.4588L172.507 53.7391L171.984 53.9469L171.35 54.1105L170.721 54.3278L169.652 54.4753L169.272 54.4545L168.887 54.38L168.561 54.3546L168.001 54.1333L167.597 53.8443C167.355 53.5412 167.273 53.2241 167.312 53.0584L167.729 52.2652L168.35 51.9407L168.935 51.8354L169.15 51.8167L169.422 51.8468L169.817 52.0286L170.309 52.0936C170.577 52.0701 170.85 52.1003 171.065 52.0815C171.172 52.0722 171.279 52.0628 171.489 51.9904L172.821 51.7658L173.758 51.3594L175.472 50.5609L176.185 50.066L176.444 49.9353L177.367 49.368C177.465 49.2514 177.505 49.0858 177.554 49.0274L178.389 48.6841L178.58 48.3971L179.288 47.8487L179.538 47.6106L180.105 47.2908L180.256 47.1695L181.004 46.4554L182.03 45.8251L182.788 45.2183C183.585 44.4459 184.177 43.7995 184.52 43.3912L185.156 42.6328C185.504 42.2781 185.557 42.2734 186.096 41.6317C186.091 41.5781 186.179 41.3541 186.228 41.2958L186.62 40.8291L186.958 40.3672L187.31 40.0661C187.697 39.5458 188.133 38.9671 188.314 38.5729L188.363 38.5145C188.354 38.4073 188.447 38.2369 188.438 38.1297L188.571 37.7937C188.619 37.7354 188.668 37.6771 188.664 37.6234L188.636 37.3016L188.568 37.1453L188.248 36.5788L187.665 36.0893L187.285 36.0685L186.909 36.1013C186.27 36.2113 185.543 36.5452 184.761 36.8838L184.605 36.9515L183.204 37.6147L182.744 37.9251L182.427 38.0069L181.397 38.5835L181.143 38.7679L180.986 38.8356C180.937 38.894 180.884 38.8987 180.884 38.8987L180.014 39.4612L177.272 41.4848L176.979 41.8348L176.65 42.4041L176.03 42.7286L175.526 43.151L174.617 43.8792C174.314 44.1219 174.016 44.4183 173.82 44.6516L173.33 45.2349Z" fill="#C58569"/>
<path d="M207.895 40.3191L207.904 40.4264C207.87 40.6456 207.884 40.8066 207.544 41.8633C207.504 42.0289 207.43 42.4138 207.341 42.6377L206.87 43.4356L206.318 43.9164L205.877 44.4414L205.442 45.0201L204.943 45.4961C204.106 46.4342 202.991 47.2884 201.823 48.1473L201.721 48.2103L201.066 48.7541L200.753 48.8895L200.147 49.375L199.804 49.7833L199.487 49.8651C199.443 49.9771 199.296 50.1521 199.296 50.1521L198.832 50.4089L198.676 50.4766L198.1 50.6892L197.734 50.8293L197.524 50.9017C197.475 50.9601 197.377 51.0767 197.324 51.0814L197.167 51.1491C196.235 51.6091 195.668 51.9289 195.141 52.0832L194.994 52.2582L194.677 52.34L193.935 52.5129L193.56 52.5458L192.536 52.5813C192.053 52.6236 191.619 52.6075 191.293 52.582C191.02 52.5518 190.693 52.5263 190.08 52.3097L189.968 52.2655C189.408 52.0442 188.659 51.5152 188.519 51.149L188.321 50.734L188.225 50.2559L188.345 49.1643L188.665 48.4878L189.086 47.7482L190.848 45.6482L191.441 45.0018L191.939 44.5257L192.135 44.2924L193.24 43.3309L193.289 43.2726C193.338 43.2142 193.485 43.0392 193.588 42.9762L194.135 42.4418L194.385 42.2038L195.588 41.1256L195.93 40.7173L196.091 40.7032L196.595 40.2808L197.152 39.8536L197.812 39.3635L198.819 38.5187L199.327 38.1499L198.523 38.2203C198.415 38.2297 198.313 38.2927 198.152 38.3068C197.781 38.3933 197.303 38.4892 196.82 38.5314L195.484 38.7024L194.826 38.5978L194.373 38.3671L193.897 37.8682L193.895 37.2198L194.351 36.261L195.025 35.9318L195.66 35.7682L196.352 35.6535L196.742 35.7816L197.668 35.8628C198.419 35.797 199.067 35.7944 199.827 35.836L200.632 35.7656L201.441 35.7488L202.446 35.4987L202.666 35.5336L203.407 35.3606C203.51 35.2976 203.72 35.2252 203.769 35.1668L204.375 34.6814L204.785 34.4293L204.839 34.4246L205.249 34.1725L205.727 34.0766L206.152 33.9854C206.469 33.9036 207.001 33.803 207.381 33.8238L207.703 33.7957L207.98 33.8795C208.199 33.9144 208.482 34.0518 208.652 34.145L209.921 33.8178L210.55 33.6006L211.35 33.4765L212.185 33.1332L212.609 33.0421L213.141 32.9415L214.214 32.8476L214.638 32.7564L215.34 32.7491C215.501 32.735 215.716 32.7162 215.926 32.6438L216.462 32.5969C216.623 32.5828 216.779 32.5151 216.94 32.501L217.253 32.3656L217.472 32.4004L217.794 32.3723L218.111 32.2905L218.487 32.2576L219.081 32.2596L219.613 32.1591L219.998 32.2335L220.159 32.2194L220.593 32.2355L220.866 32.2657C221.299 32.2818 221.85 32.3958 222.566 32.5493L222.678 32.5936L222.893 32.5748L223.399 32.8008L223.345 32.8055C223.837 32.8705 223.847 32.9778 223.963 33.0757C224.075 33.12 224.129 33.1153 224.183 33.1106L224.941 33.7469L225.193 34.1573L225.303 34.7963L225.243 35.3421L225.021 35.9019L224.604 36.6952C224.423 37.0894 224.325 37.2061 224.178 37.3811L223.884 37.7311L223.255 37.9483L222.928 37.9229L222.818 37.2839L222.848 37.011L222.923 36.6261L223.1 36.1782L223.419 35.5016L223.572 34.7855L223.558 34.6246L223.11 34.4476L222.711 34.2122L221.888 34.0681C220.684 33.9031 219.236 34.0298 218.432 34.1002L217.627 34.1706L216.988 34.2806C216.72 34.304 216.51 34.3764 216.3 34.4488C216.144 34.5166 215.929 34.5353 215.661 34.5588C213.315 34.9262 211.671 35.2863 210.031 35.7L209.612 35.8448L209.411 36.0245L208.387 36.06L207.328 36.3148L205.845 36.6608L205.484 36.8545L205.771 37.0456L205.883 37.0899L206.335 37.3205L207.273 38.1574L207.53 38.6214L207.855 39.2416L207.895 40.3191ZM204.573 42.5016L204.724 42.3802C205.106 41.8063 205.283 41.3584 205.46 40.9105L205.432 40.5886L205.595 39.9798C205.581 39.8189 205.625 39.7069 205.607 39.4923C205.544 39.3897 205.296 39.033 205.291 38.9794L205.233 38.9304L204.834 38.6951L204.382 38.4644L203.719 38.3062L203.043 37.987C203.043 37.987 202.935 37.9964 202.877 37.9474L202.525 38.2485C201.968 38.6756 201.215 39.3361 199.578 40.3981L198.156 41.4414L197.55 41.9269L197.295 42.1113C196.939 42.3587 196.591 42.7134 196.235 42.9608L195.936 43.2572L195.281 43.8009L194.738 44.389L194.181 44.8161L193.834 45.1708L193.183 45.7682C193.085 45.8849 192.792 46.2349 192.747 46.3469L192.321 47.0328L191.934 47.5531C191.699 47.9521 191.468 48.4047 191.34 48.7942C191.291 48.8526 191.3 48.9599 191.3 48.9599L191.217 49.2374L191.2 49.6713L191.161 49.8369L191.189 50.1587L191.539 50.4524L191.821 50.5899L191.929 50.5805C193.601 50.5423 193.962 50.3485 195.627 49.6083C196.462 49.265 197.238 48.8727 197.912 48.5435L198.938 47.9133L199.887 47.0195L200.262 46.9866L201.675 45.836L201.925 45.598C202.326 45.2386 202.717 44.7719 203.114 44.3589L203.256 44.1303L203.75 43.6006L204.19 43.0756C204.186 43.0219 204.23 42.9099 204.23 42.9099L204.573 42.5016Z" fill="#C58569"/>
<path d="M222.943 41.1646L222.477 42.0162L222.678 41.8365L223.524 41.0057L223.965 40.4807L224.517 39.9999L225.377 39.3301L226.326 38.4363L227.431 37.4748L228.991 36.1492L229.191 35.9695L229.753 35.5961L230.096 35.1877L230.359 35.1106C230.511 34.9893 230.716 34.8632 230.814 34.7465L231.831 34.009L232.271 33.484L232.574 33.2412L233.302 32.9073L233.845 32.3193L234.505 31.8292L235.901 31.1124L235.955 31.1077C235.955 31.1077 236.419 30.8509 236.57 30.7295C236.776 30.6035 237.137 30.4097 238.002 29.7935L238.988 29.3289L240.537 28.4907L241.108 28.2245L241.523 28.0261L242.162 27.9161C243.104 27.5634 244.002 27.3227 244.811 27.306C244.977 27.3455 245.142 27.3851 245.303 27.371C245.751 27.5481 246.087 27.6808 246.32 27.8766C246.437 27.9745 246.729 28.2192 246.796 28.3755L247.063 28.9468L247.073 30.2972L246.914 30.9596L246.684 31.4122L246.292 31.8789L245.887 32.1847L245.467 32.3295L245.15 32.4113L244.716 32.3952L244.133 31.9057L244.051 31.5886L243.974 31.325L243.95 31.0568L243.81 30.6907L243.724 30.3199L243.583 29.9538L243.154 29.9914L242.431 30.3789L242.061 30.4654L241.788 30.4352L241.221 30.7551L240.743 30.851C240.109 31.0146 239.43 31.2901 238.85 31.449C238.18 31.8319 237.409 32.2778 236.735 32.607C236.686 32.6653 236.481 32.7914 236.427 32.7961L236.182 33.0877L234.135 34.4019L233.426 34.9504L233.079 35.3051L232.107 35.9307L231.902 36.0567L231.456 36.5281L230.699 37.1349L230.405 37.4849L228.939 38.6402L227.652 39.996L226.472 41.3423L226.12 41.6434L225.538 42.397L224.794 43.1648L224.388 43.4705C224.29 43.5872 224.09 43.7669 224.046 43.8789L223.601 44.3502L223.165 44.9289L222.92 45.2206L222.671 45.4586L222.176 45.9883L222.039 46.2706L221.74 46.5669L221.549 46.8539L221.055 47.3836L219.958 49.0472L219.256 50.2977L218.825 50.9299L218.179 51.581C217.974 51.7071 217.657 51.7889 217.389 51.8123C216.906 51.8546 216.512 51.6729 216.376 51.3604C216.197 51.1599 215.951 50.2084 216.212 49.4829L216.557 48.4799L217.107 47.3507L217.538 46.7184L217.871 46.2028L218.44 45.2882L218.768 44.719L219.048 44.208L219.22 43.7065L219.695 42.9622L219.77 42.5774L220.348 41.7701L220.495 41.5951C220.686 41.3081 220.858 40.8065 221.049 40.5196L221.329 40.0086L221.844 39.0987L222.252 38.1982L222.389 37.916L222.561 37.4144L222.752 37.1274L222.748 37.0738L223.088 36.0171L223.397 35.2332L223.898 34.1624L224.317 32.7745L224.352 32.5552L224.539 32.2146L225.175 31.4563L225.982 30.7911L226.294 30.6557L226.674 30.6765C227.453 30.9326 227.755 31.2846 227.895 31.6507L227.923 31.9726C227.993 32.7772 227.571 33.5168 227.14 34.1491L226.122 35.4814L225.686 36.06L225.593 36.2303L225.411 36.6246C225.46 36.5663 225.131 37.1355 224.896 37.5345L224.239 38.673L224.062 39.1209L223.694 39.8558L223.307 40.3761L223.312 40.4297L222.943 41.1646Z" fill="#C58569"/>
<path d="M262.027 40.2317L262.968 38.6358L263.346 38.0083L263.732 37.4879L263.786 37.4832L264.271 36.8463L264.413 36.6176L264.359 36.6223L263.73 36.8396L262.279 37.561L261.752 37.7152L260.174 38.8262L259.768 39.132L259.407 39.3258L259.05 39.5732L257.868 40.2712L256.544 41.1978L256.182 41.3916L255.254 41.9052L255.205 41.9635L254.492 42.4584L254.282 42.5308C253.974 42.7199 253.676 43.0162 253.368 43.2053L253.065 43.448L252.562 43.8704L252.249 44.0059C252.2 44.0642 251.888 44.1997 251.834 44.2044C251.477 44.4518 251.121 44.6992 250.769 45.0002L249.796 45.6258L249.314 45.6681L248.693 45.9926L248.313 45.9718C248.215 46.0885 248.103 46.0442 247.844 46.1749C247.742 46.238 247.6 46.4666 247.6 46.4666L246.56 46.936L246.189 47.0225L245.31 47.4777L244.993 47.5595L244.613 47.5387C243.549 47.7399 242.672 47.6004 242.275 46.7703C241.941 46.0428 242.125 45.0538 242.421 44.109L242.623 43.3346L242.912 42.9309C242.912 42.9309 242.961 42.8726 242.956 42.819L243.329 42.1377L243.658 41.5685L244.138 40.8778L244.725 40.1778L244.916 39.8909L245.366 39.4731L245.909 38.8851L248.185 36.4699L248.884 35.8142L249.227 35.4058L249.823 34.8131L249.926 34.7501L250.332 34.4443L251.32 33.3849L252.166 32.5542L252.513 32.1995L253.281 31.6999L253.329 31.6416L253.793 31.3848L253.95 31.3171C254.106 31.2494 254.253 31.0744 254.775 30.8665L256.622 29.732L257.086 29.4752L257.398 29.3398C257.715 29.258 257.969 29.0736 258.287 28.9918L258.487 28.8121L259.019 28.7115L259.331 28.5761L259.697 28.4359L260.502 28.3655L261.696 28.4232C261.755 28.4722 261.92 28.5117 261.974 28.507L262.606 28.9382L262.707 29.4699L262.642 29.9621C262.518 30.4053 261.852 31.4365 260.716 31.4278C260.609 31.4372 260.452 31.5049 260.345 31.5143L258.253 31.6973L257.882 31.7838L257.57 31.9192L256.891 32.1948L256.003 32.5428L254.865 33.1288L253.536 34.0018L253.282 34.1862L252.627 34.73L250.368 36.7113L250.221 36.8863L249.785 37.465L249.345 37.99L248.988 38.2374L248.592 38.6504L248.494 38.7671L247.995 39.2432L248.004 39.3505L247.524 40.0411L246.932 40.6874L246.937 40.7411L246.648 41.1447L246.457 41.4317L246.363 41.602C246.368 41.6557 246.324 41.7676 246.324 41.7676L246.03 42.1176L245.839 42.4046L245.319 43.2609L245.059 43.9864L244.926 44.3223L244.686 44.6676L244.544 44.8962L244.499 45.0082L244.532 45.3837C244.898 45.2436 245.094 45.0102 245.46 44.8701L245.934 44.7206L246.715 44.382L247.085 44.2955L248.888 43.273L249.142 43.0886L249.601 42.7781L250.28 42.5026L250.588 42.3135C251.003 42.115 251.007 42.1687 251.872 41.5525L252.224 41.2514L252.684 40.941L252.83 40.766L253.148 40.6842L254.174 40.0539L254.53 39.8065L255.913 38.9288L256.265 38.6277L257.808 37.736L258.018 37.6635L258.893 37.1546L259.494 36.6156L260.315 36.1113L260.564 35.8733L260.97 35.5676L261.219 35.3295L261.826 34.8441L262.588 34.2909L264.218 33.7699L264.969 33.7042L265.568 33.7599L266.133 34.0348L266.191 34.0838C266.469 34.1676 266.809 34.354 267.178 34.8622L267.206 35.1841L267.167 35.3497L266.98 35.6903L266.92 36.2361L266.465 36.6002L266.27 36.8335L265.848 37.5731L265.452 37.9861L264.438 39.3721L264.345 39.5424L263.874 40.3403L263.741 40.6762L263.657 40.9538C263.618 41.1194 263.51 41.1288 263.515 41.1825C263.676 41.1684 263.779 41.1054 263.993 41.0866L264.525 40.986L264.74 40.9673L265.423 40.7453L266.003 40.5864L266.316 40.451L266.999 40.229L268.83 39.5284L269.088 39.3976L269.562 39.2481L270.187 38.9772L270.651 38.7204L270.861 38.648L271.061 38.4683L272.896 37.8213L273.365 37.6181L273.512 37.4431L276.075 36.4622L276.548 36.3127L277.593 35.897C277.646 35.8923 277.968 35.8641 278.026 35.9131C278.192 35.9526 278.519 35.9781 278.572 35.9734L278.652 36.8853L278.158 37.415L277.568 37.4666L276.782 37.7516L276.166 38.1298L275.845 38.1579L275.112 38.4382L274.8 38.5736L273.564 39.2763L272.69 39.7852L271.645 40.2009L270.503 40.7333L270.19 40.8687L269.98 40.9412L269.579 41.3006L268.798 41.6392L268.392 41.9449L268.187 42.071L266.893 42.7247L266.483 42.9768L265.081 43.6399L264.51 43.9061C264.408 43.9691 264.207 44.1488 264.153 44.1535L263.368 44.4385L262.67 44.4995L262.183 44.4881L261.905 44.4043L261.52 44.3298L260.991 43.8357L260.944 43.2993C260.867 43.0357 260.785 42.7186 260.873 42.4946L261.09 41.8811L261.081 41.7738L261.507 41.0879L261.644 40.8056L262.027 40.2317Z" fill="#C58569"/>
<path d="M292.066 10.5236L292.865 10.3996L293.572 10.4459L293.612 10.2803L294.886 8.16881L295.597 7.02559L296.131 6.33028L296.322 6.0433L296.842 5.18706L296.988 5.01205C296.984 4.95841 297.028 4.84644 297.028 4.84644L297.371 4.4381L297.562 4.15112L297.709 3.97611L297.944 3.57716L297.939 3.52352L298.17 3.07092L298.713 2.48289L299.1 1.96257L299.349 1.72454L299.545 1.49121L300.025 0.800582L300.564 0.158905L301.144 0L301.632 0.0114019L302.274 0.549832L302.477 1.01853L302.601 1.81845L302.316 2.27574L301.818 2.7518L301.484 3.26742L301.048 3.84607L300.764 4.30336L300.065 4.95911L299.585 5.64974L298.508 6.93309L296.72 9.35967L296.289 9.99196L296.821 9.89139L297.674 9.76266L299.27 9.46095L301.259 9.34095L302.8 9.04392L304.302 8.91252L304.799 9.03121L305.175 8.99836L305.886 9.09827C305.998 9.14253 306.378 9.16332 306.486 9.15393L307.066 8.99503L307.831 9.09025C308.1 9.06678 308.358 8.93604 308.627 8.91257L309.002 8.87972L309.597 8.88174L310.255 8.98634C310.308 8.98165 310.474 9.02121 310.527 9.01652L311.069 9.02323L312.55 9.27201C312.608 9.32096 312.827 9.35583 312.881 9.35113L313.739 9.27605L314.192 9.50671L315.274 9.52013C315.381 9.51075 315.493 9.555 315.547 9.55031L315.892 9.79036C315.892 9.79036 315.888 9.73671 316.107 9.77158L317.996 10.363C318.055 10.4119 318.167 10.4562 318.22 10.4515L319.331 10.7868C319.443 10.831 319.443 10.831 319.496 10.8263C319.555 10.8753 319.613 10.9242 319.559 10.9289L319.939 10.9497L320.723 11.2595L320.971 11.6162L321.311 11.8026L321.687 11.7698L322.163 12.2686L322.683 12.6555L322.858 12.8024C322.965 12.793 323.024 12.8419 323.077 12.8373L323.801 13.6928L323.859 13.7418L324.291 14.3526L324.548 14.8166L324.905 15.8124L325.108 16.281L325.165 16.9247L324.869 17.8695L324.634 18.2684L324.249 18.194L323.952 17.8956L323.712 16.9978C323.702 16.8905 323.635 16.7343 323.625 16.627C323.494 16.3682 323.238 15.9042 323.116 15.7527L322.724 14.9762L322.292 14.3654L321.816 13.8665L321.296 13.4796L321.242 13.4843L320.386 12.9646C320.22 12.9251 319.938 12.7876 319.938 12.7876C319.884 12.7923 319.826 12.7433 319.826 12.7433L319.262 12.4684L318.93 12.3893C318.823 12.3987 318.385 12.329 318.142 12.0259L317.309 11.7744C317.041 11.7979 316.602 11.7282 316.334 11.7516L315.842 11.6866L315.17 11.421L314.347 11.2769C313.743 11.1676 313.201 11.1609 312.548 11.1099C312.227 11.138 311.788 11.0683 311.52 11.0918L310.594 11.0106C310.487 11.02 310.321 10.9805 310.267 10.9852L309.731 11.0321L309.306 11.1233L308.327 11.0468C308.166 11.0609 308 11.0213 307.893 11.0307L307.41 11.073L306.704 11.0267C306.27 11.0106 305.841 11.0481 305.465 11.081L305.255 11.1534L305.09 11.1138C304.929 11.1279 304.763 11.0883 304.602 11.1024L304.227 11.1353C302.51 11.2855 300.794 11.4356 299.082 11.6394L298.872 11.7119L298.457 11.9103L296.906 12.1001L296.267 12.21L294.369 12.7545L293.938 13.3868L293.32 14.3597L293.192 14.7492L292.889 14.992C292.6 15.3956 292.404 15.6289 292.169 16.0279C292.173 16.0815 292.134 16.2471 292.134 16.2471L291.36 17.2878L290.659 18.5383L290.232 19.2242L289.312 20.4398L287.792 22.843L287.459 23.3586L286.552 24.7351L286.42 25.0711L286.126 25.4211C286.028 25.5377 285.94 25.7617 285.846 25.932L285.576 26.5502L285.287 26.9539L284.949 27.4158L284.607 27.8242L284.273 28.3398L284.18 28.5101L284.008 29.0117L282.959 30.6169L282.332 31.4825L281.088 33.321L280.249 34.8538L279.401 36.2793C279.317 36.5569 279.254 36.4543 279.116 36.7366L278.357 37.9382L278.17 38.2788L277.674 39.4032C277.595 39.7345 277.453 39.9631 277.374 40.2943L276.903 41.0922L276.411 42.2703L276.102 43.0542L276.125 43.3224L276.104 43.7025L275.736 44.4374C275.755 44.652 275.568 44.9926 275.587 45.2072L275.576 45.6946L275.629 45.6899L276.576 45.3909L276.942 45.2508L277.362 45.1059L277.768 44.8002L278.598 44.4033L279.004 44.0975L279.374 44.011L279.843 43.8079L280.097 43.6235L280.419 43.5953L281.753 42.776L282.73 42.204L283.238 41.8352L283.711 41.6857L283.916 41.5597L285.411 40.7262L286.022 40.2944L286.232 40.222L288.547 38.8844L289.158 38.4526L289.519 38.2588L290.091 37.9926L290.813 37.605L291.004 37.3181L291.816 36.7066L292.441 36.4357L293.168 36.1018L294.497 35.2288L294.653 35.1611L294.952 34.8647L295.768 34.3068L296.027 34.1761L296.183 34.1084L296.285 34.0453L296.642 33.7979L297.281 33.688L297.626 33.928L297.722 34.4061L297.706 34.8399L297.198 35.2087L296.89 35.3978L296.792 35.5145L295.429 36.6067L295.38 36.665L294.969 36.9171L294.412 37.3443L293.596 37.9021L293.029 38.2219L292.556 38.3715L291.838 38.8127L291.481 39.0601L291.383 39.1767L290.67 39.6716L290.318 39.9726L289.024 40.6264L288.378 41.2774L288.012 41.4176L287.387 41.6884L287.333 41.6931C287.231 41.7562 287.084 41.9312 287.035 41.9895C286.937 42.1062 286.781 42.1739 286.732 42.2322L286.415 42.314L286 42.5125L285.741 42.6432L285.316 42.7344C285.263 42.7391 285.111 42.8605 285.111 42.8605L284.803 43.0496L283.782 43.7335L283.269 44.0486L282.721 44.583L282.561 44.5971L282.052 44.9659L281.222 45.3628L280.313 46.091L279.786 46.2452L278.965 46.7494L277.613 47.3542L275.68 48.1179L274.987 48.2325L274.714 48.2024L274.329 48.1279L274.003 48.1024L273.336 47.8906L273.016 47.324L272.866 46.8506L272.81 46.2069C272.801 46.0996 272.835 45.8803 272.831 45.8267C272.852 45.4465 272.97 44.9497 273.168 44.1216C273.159 44.0143 273.238 43.6831 273.228 43.5758L273.464 43.1768L273.45 43.0159L273.533 42.7383L273.867 42.2227L274.034 41.6675L274.531 40.5431L274.766 40.1441C274.757 40.0368 274.845 39.8129 274.84 39.7592L275.129 39.3556L275.369 39.0103C275.467 38.8936 275.502 38.6743 275.6 38.5577L275.835 38.1587L276.208 37.4775L276.59 36.9035L276.826 36.5046L277.213 35.9843L277.399 35.6436L277.781 35.0697L278.168 34.5494C278.159 34.4421 278.203 34.3301 278.198 34.2765L278.492 33.9265L279.065 33.0655L279.345 32.5546L279.669 31.9317L279.948 31.4208L280.331 30.8468C280.326 30.7932 280.38 30.7885 280.375 30.7348L281.041 29.7036L281.316 29.139L282.002 28.3223L282.477 27.5781C282.761 27.1208 283.041 26.6099 283.472 25.9776L283.609 25.6953L284.055 25.2239C284.619 24.2557 285.222 23.1219 285.791 22.2073L286.035 21.9156L286.893 20.5974C287.236 20.189 287.329 20.0187 287.515 19.6781L287.795 19.1672L288.333 18.5255L288.55 17.912L289.207 16.7735L289.368 16.7594L289.456 16.5354L289.976 15.6792L290.549 14.8183L290.936 14.2979L291.118 13.9037L291.656 13.262L291.691 13.0428L291.423 13.0662L290.789 13.2298L289.189 13.4779L287.599 13.8332L287.12 13.9291L286.75 14.0156L285.383 14.4595L284.963 14.6043L282.289 15.541L281.874 15.7395L281.508 15.8796L281.039 16.0827L279.379 16.8766L278.915 17.1334L277.807 17.4465L276.832 17.4237L276.277 17.2561L275.927 16.9624L275.514 16.5661L275.399 15.8735L275.464 15.3813C275.553 15.1574 275.637 14.8798 276.203 14.56L276.565 14.3662C277.39 13.9156 277.859 13.7124 278.703 13.4764L279.391 13.3081L280.216 12.8576L281.123 12.7241L281.455 12.8033L283.577 12.3473L283.733 12.2796L285.216 11.9336L286.333 11.7278L286.499 11.7674L286.87 11.6809L287.031 11.6668L288.451 11.2182L288.817 11.0781L289.139 11.05L290.041 10.8629L290.197 10.7952L290.47 10.8253L291.368 10.5846L292.066 10.5236Z" fill="#C58569"/>
<path d="M307.518 38.8462L307.108 39.0983L306.506 39.6374L305.784 40.0249L305.364 40.1697L305.012 40.4708L304.86 40.5921C304.65 40.6646 304.396 40.849 304.186 40.9214L303.678 41.2901L303.419 41.4209L302.442 41.9928L302.242 42.1725L301.431 42.784L301.015 42.9825C300.967 43.0408 300.761 43.1669 300.708 43.1716L299.994 43.6664L299.633 43.8602L299.267 44.0003L298.423 44.2363L297.704 44.6775L296.963 44.8505L296.207 44.8626L295.578 45.0798L294.106 44.9383C293.555 44.8243 293.098 44.54 292.676 44.0364L292.379 43.7381L292.395 43.3042C292.309 42.9334 292.301 42.2314 292.42 41.7346L292.392 41.4127L292.674 40.307L293.009 39.1967C293.004 39.143 293.097 38.9727 293.088 38.8654L293.451 38.0769L293.789 37.6149C293.785 37.5613 293.829 37.4493 293.829 37.4493L294.274 36.978L294.505 36.5254C294.593 36.3014 294.789 36.0681 294.878 35.8441L295.006 35.4546L295.187 35.0603L295.334 34.8853C295.476 34.6566 295.609 34.3207 295.756 34.1457L296.178 33.4061L296.315 33.1239L296.893 32.3166L297.648 31.0614L297.86 30.3942L298.482 29.4749L298.718 29.076L298.895 28.6281L299.144 28.3901L299.748 27.2562L300.218 26.4583L300.762 25.8703C301.055 25.5203 301.822 25.0207 302.627 24.9503C303.012 25.0248 303.446 25.0409 303.922 25.5397L303.955 25.9152L303.913 26.6756L303.477 27.2542L302.894 28.0079L302.195 28.6637L301.451 29.4314L301.323 29.821L300.393 30.9293L299.923 31.7272L299.594 32.2965L299.251 32.7048C299.212 32.8704 299.221 32.9777 299.226 33.0314L298.718 33.4001C298.722 33.4538 298.629 33.6241 298.585 33.7361L297.86 34.7184L297.184 35.6423L296.856 36.2116L296.625 36.6642L296.124 37.735L295.879 38.0267C295.684 38.26 295.688 38.3136 295.644 38.4256L295.402 39.3657L295.318 39.6433L294.929 40.7583L294.755 41.8546L294.774 42.0692L294.723 42.7223L294.737 42.8832L295.112 42.8503L295.492 42.8711L295.702 42.7987L296.019 42.7169L296.346 42.7424L296.614 42.7189C296.985 42.6324 297.293 42.4434 297.717 42.3522L298.186 42.149L298.659 41.9995C298.708 41.9412 298.811 41.8781 298.811 41.8781L299.627 41.3203L299.827 41.1406L301.087 40.7061L301.917 40.3092L302.336 40.1643L304.031 39.1512L304.442 38.8991L305.258 38.3412L305.918 37.8511L306.323 37.5453L306.641 37.4635L306.944 37.2208L307.603 36.7307L307.96 36.4833L308.415 36.1192L308.61 35.8858L309.431 35.3816L309.681 35.1436L310.912 34.3873L311.371 34.0768L311.474 34.0138L311.826 33.7127L311.933 33.7034L312.178 33.4117L312.539 33.2179L312.735 32.9846L313.297 32.6111L313.653 32.3637L314.166 32.0485C314.523 31.8011 314.822 31.5048 315.281 31.1943L315.579 30.898L316.174 30.9L316.636 31.2379L316.732 31.716L316.198 32.4113L315.886 32.5468L315.587 32.8431L314.767 33.3473L313.193 34.512L312.738 34.8761L312.092 35.5272L311.726 35.6673L311.468 35.798C310.558 36.5262 309.654 37.308 308.789 37.9242L308.495 38.2742L308.29 38.4003L307.719 38.6665L307.518 38.8462ZM309.93 12.0417L309.993 12.1443C310.074 12.4614 310.156 12.7786 310.096 13.3244C309.879 13.9379 309.448 14.5702 308.324 15.3171L307.522 16.0359C307.273 16.2739 306.867 16.5797 306.672 16.813L305.781 17.7558L304.984 18.5282L304.632 18.8292C304.378 19.0136 304.002 19.0465 303.627 19.0793L303.458 18.3914L303.493 18.1721L304.089 16.3363L304.271 15.942L304.924 14.7498L305.301 14.1222L305.492 13.8353L305.928 13.2566L306.28 12.9555L306.578 12.6592L307.313 11.7842L307.928 11.406L308.348 11.2612C309.269 11.2887 309.678 11.6313 309.93 12.0417Z" fill="#C58569"/>
<path d="M327.886 29.8213L327.895 29.9286C327.86 30.1478 327.874 30.3087 327.535 31.3655C327.495 31.5311 327.421 31.9159 327.332 32.1399L326.861 32.9378L326.309 33.4186L325.868 33.9436L325.432 34.5222L324.934 34.9983C324.097 35.9363 322.982 36.7905 321.814 37.6495L321.712 37.7125L321.057 38.2563L320.744 38.3917L320.138 38.8772L319.795 39.2855L319.478 39.3673C319.434 39.4793 319.287 39.6543 319.287 39.6543L318.823 39.9111L318.667 39.9788L318.091 40.1913L317.725 40.3315L317.515 40.4039C317.466 40.4622 317.368 40.5789 317.314 40.5836L317.158 40.6513C316.226 41.1113 315.659 41.4311 315.132 41.5853L314.985 41.7603L314.668 41.8421L313.926 42.0151L313.551 42.0479L312.527 42.0835C312.044 42.1257 311.61 42.1096 311.284 42.0841C311.011 42.054 310.684 42.0285 310.071 41.8119L309.959 41.7676C309.399 41.5464 308.65 41.0173 308.51 40.6512L308.311 40.2362L308.216 39.7581L308.336 38.6665L308.655 37.9899L309.077 37.2504L310.839 35.1503L311.431 34.504L311.93 34.0279L312.126 33.7946L313.231 32.8331L313.28 32.7747C313.329 32.7164 313.476 32.5414 313.578 32.4784L314.126 31.944L314.376 31.7059L315.579 30.6278L315.921 30.2194L316.082 30.2053L316.586 29.7829L317.143 29.3558L317.803 28.8657L318.81 28.0208L319.318 27.6521L318.513 27.7225C318.406 27.7318 318.304 27.7949 318.143 27.8089C317.772 27.8954 317.294 27.9913 316.811 28.0336L315.475 28.2045L314.817 28.0999L314.364 27.8692L313.888 27.3704L313.886 26.722L314.342 25.7632L315.016 25.4339L315.65 25.2703L316.343 25.1557L316.733 25.2838L317.659 25.3649C318.41 25.2992 319.058 25.2965 319.818 25.3381L320.623 25.2677L321.432 25.251L322.437 25.0009L322.657 25.0357L323.398 24.8628C323.501 24.7997 323.711 24.7273 323.76 24.669L324.366 24.1835L324.776 23.9314L324.83 23.9267L325.24 23.6746L325.718 23.5787L326.143 23.4876C326.46 23.4058 326.991 23.3052 327.372 23.326L327.694 23.2978L327.971 23.3816C328.19 23.4165 328.473 23.554 328.643 23.6472L329.912 23.32L330.541 23.1027L331.341 22.9787L332.176 22.6354L332.6 22.5442L333.132 22.4436L334.205 22.3498L334.629 22.2586L335.331 22.2512C335.492 22.2372 335.707 22.2184 335.917 22.146L336.453 22.099C336.614 22.085 336.77 22.0172 336.931 22.0032L337.244 21.8677L337.463 21.9026L337.785 21.8744L338.102 21.7926L338.477 21.7598L339.072 21.7618L339.604 21.6612L339.989 21.7357L340.15 21.7216L340.584 21.7377L340.856 21.7679C341.29 21.784 341.841 21.8979 342.557 22.0515L342.669 22.0958L342.883 22.077L343.39 22.303L343.336 22.3076C343.828 22.3727 343.838 22.48 343.954 22.5779C344.066 22.6221 344.12 22.6174 344.173 22.6127L344.932 23.2491L345.184 23.6594L345.294 24.2984L345.233 24.8442L345.012 25.4041L344.595 26.1973C344.413 26.5916 344.316 26.7082 344.169 26.8833L343.875 27.2333L343.245 27.4505L342.919 27.425L342.809 26.786L342.839 26.5131L342.914 26.1282L343.091 25.6803L343.41 25.0038L343.563 24.2877L343.549 24.1268L343.101 23.9497L342.702 23.7144L341.879 23.5702C340.675 23.4053 339.227 23.532 338.422 23.6024L337.618 23.6728L336.979 23.7827C336.711 23.8062 336.501 23.8786 336.291 23.951C336.135 24.0187 335.92 24.0375 335.652 24.061C333.306 24.4284 331.662 24.7884 330.022 25.2021L329.602 25.3469L329.402 25.5266L328.378 25.5622L327.319 25.8169L325.836 26.1629L325.475 26.3567L325.762 26.5478L325.874 26.592L326.326 26.8227L327.264 27.6595L327.521 28.1235L327.846 28.7437L327.886 29.8213ZM324.563 32.0038L324.715 31.8824C325.097 31.3084 325.274 30.8605 325.451 30.4126L325.423 30.0908L325.586 29.482C325.572 29.321 325.616 29.2091 325.597 28.9945C325.534 28.8919 325.287 28.5352 325.282 28.4815L325.224 28.4326L324.825 28.1972L324.372 27.9666L323.71 27.8083L323.033 27.4892C323.033 27.4892 322.926 27.4985 322.868 27.4496L322.516 27.7507C321.959 28.1778 321.206 28.8382 319.569 29.9003L318.147 30.9436L317.54 31.429L317.286 31.6134C316.93 31.8609 316.582 32.2156 316.226 32.463L315.927 32.7593L315.272 33.3031L314.729 33.8911L314.172 34.3183L313.824 34.673L313.174 35.2704C313.076 35.387 312.782 35.7371 312.738 35.849L312.312 36.535L311.925 37.0553C311.69 37.4542 311.459 37.9068 311.331 38.2964C311.282 38.3547 311.291 38.462 311.291 38.462L311.207 38.7396L311.191 39.1734L311.152 39.339L311.18 39.6609L311.53 39.9546L311.812 40.092L311.919 40.0826C313.592 40.0444 313.953 39.8507 315.618 39.1104C316.453 38.7671 317.229 38.3749 317.903 38.0457L318.929 37.4154L319.878 36.5216L320.253 36.4888L321.666 35.3382L321.916 35.1002C322.317 34.7408 322.708 34.2741 323.104 33.8611L323.247 33.6324L323.741 33.1027L324.181 32.5777C324.177 32.5241 324.221 32.4121 324.221 32.4121L324.563 32.0038Z" fill="#C58569"/>
<path d="M339.905 32.3912L340.1 32.1579C340.1 32.1579 340.149 32.0996 340.145 32.0459L340.783 30.6928L341.298 29.783L342.353 27.6366L342.584 27.184L342.726 26.9554L343.346 25.3878L344.196 23.3675C344.28 23.0899 344.433 22.3738 344.538 21.716C344.603 21.2239 344.517 20.8531 344.493 20.5849C344.455 20.1557 344.432 19.8875 344.511 19.5563C344.63 19.0594 345.285 18.5157 345.875 18.464C347.27 18.342 347.881 19.1534 347.623 20.5272C347.474 21.297 347.204 21.9152 346.938 22.587L346.112 24.8755L345.646 25.7271L345.429 26.3406L345.208 26.9005L344.541 27.9317L344.467 28.3166L344.173 28.6666C343.889 29.1239 343.521 29.8587 343.29 30.3113L342.54 31.6202C342.456 31.8978 342.342 32.4483 342.249 32.6186L341.876 33.2998L341.978 33.2368L343.902 31.1227L344.044 30.894L344.132 30.6701L344.939 30.0049L345.135 29.7716L345.888 29.1111L346.039 28.9898L347.354 27.9559L347.564 27.8835L348.38 27.3256C348.536 27.2579 348.683 27.0829 348.839 27.0152C349.254 26.8167 350.133 26.3614 350.514 26.3822L350.728 26.3634L351.913 26.3138L352.711 26.7845L353.255 27.4396L353.495 28.3375L353.538 28.8202L353.531 29.3613L353.48 30.0144L353.459 30.3946L353.506 30.931L353.301 32.3002C353.316 32.4611 353.271 32.5731 353.285 32.734L353.43 33.1538L353.507 33.4173C353.575 33.5735 353.71 33.886 353.769 33.9349L353.846 34.1984L354.093 34.5552C354.152 34.6041 354.098 34.6088 354.152 34.6041L354.653 34.7764C355.302 34.7738 355.994 34.6591 356.892 34.4184L357.82 33.9048L358.191 33.8183C358.401 33.7459 358.708 33.5568 358.865 33.4891L359.289 33.3979L361.619 32.2212L361.779 32.2071L362.663 31.8055L364.412 30.7876L365.067 30.2439L365.331 30.1668L366.459 29.4735L366.811 29.1724L367.207 28.7594L367.667 28.4489L369.108 27.6202L370.838 26.3878L371.141 26.1451L371.8 25.6549L372.059 25.5242L372.714 24.9804L373.304 24.9288L373.65 25.1688L373.834 25.423L373.778 26.0224L373.275 26.4448L372.366 27.173C371.764 27.7121 371.256 28.0809 370.743 28.396L369.99 29.0564L369.472 29.3179L368.715 29.9247L368.099 30.3029C367.693 30.6087 367.127 30.9285 366.409 31.3697L365.593 31.9275L363.336 33.3141L363.228 33.3235C363.028 33.5032 362.72 33.6923 362.573 33.8673L361.86 34.3621L361.128 34.6424C360.918 34.7148 360.668 34.9528 360.463 35.0789L359.999 35.3357L359.419 35.4946L358.784 35.6582L358.413 35.7447L358.208 35.8708L357.998 35.9432L357.842 36.0109C357.74 36.0739 357.53 36.1463 357.208 36.1745L356.734 36.324L356.212 36.5319L355.627 36.6371L354.978 36.6398L354.666 36.7752L354.125 36.7685C353.535 36.8201 352.98 36.6525 352.478 36.4802L352.424 36.4849L352.2 36.3964C351.641 36.1751 351.16 35.6226 350.943 34.993C350.865 34.7294 350.837 34.4076 350.804 34.0321L350.748 33.3884L350.906 32.726L351.502 29.647C351.492 29.5397 351.527 29.3204 351.518 29.2131C351.525 28.672 351.38 28.2523 351.049 28.1732C350.888 28.1872 350.624 28.2643 350.468 28.3321C350.468 28.3321 350.424 28.444 350.267 28.5118L349.911 28.7592L349.398 29.0743L348.934 29.3311L348.23 29.9332L347.971 30.064L347.481 30.6473L346.987 31.177L346.381 31.6625C346.185 31.8958 345.798 32.4161 345.598 32.5958L345.143 32.9599L344.738 33.2656L344.591 33.4407L343.901 34.2037L343.798 34.2667L343.393 34.5725L343.143 34.8105L342.996 34.9855L342.369 35.8511L341.768 36.3902L340.892 37.4939L339.428 39.2975L339.134 39.6475L338.176 40.434L337.698 40.5299C337.04 40.4253 336.783 39.9613 336.58 39.4926C336.489 39.0682 336.482 38.3662 337.104 37.4469L337.428 36.824L338.423 35.2235L338.693 34.6053L339.119 33.9193L339.208 33.6954L339.905 32.3912Z" fill="#C58569"/>
</svg>
